<svg width="283" height="70" viewBox="0 0 283 70" fill="none" xmlns="http://www.w3.org/2000/svg">
<path d="M21.6927 65.5826C15.0116 65.5826 8.41717 58.644 8.41717 46.7586C8.41717 44.8499 8.5038 42.8546 8.67707 41.2056H35.8379C35.8379 28.1078 29.7633 22.1218 19.61 22.1218C7.72411 22.1218 0 31.4888 0 46.7586C0 60.0331 7.37758 69.2269 19.96 69.2269C28.5505 69.2269 34.2786 63.4141 36.1879 57.6013L34.4518 56.9085C31.4162 63.4141 26.901 65.5826 21.6961 65.5826H21.6927ZM19.2635 23.7673C25.0782 23.7673 27.7673 31.0558 27.5074 39.5567H8.59043C9.54339 28.6274 14.1453 23.7673 19.2635 23.7673Z" fill="white"/>
<path d="M77.6153 59.4096V0H63.2101V1.92258C68.2417 1.92258 69.8045 4.35093 69.8045 9.55749V27.2383C67.5486 23.5941 63.47 22.1218 59.3913 22.1218C48.9782 22.1218 39.6947 29.93 39.7813 45.7159C39.6947 61.5054 46.6356 69.2234 57.4854 69.2234C63.4735 69.2234 67.7254 66.4486 69.808 61.2421V68.9636H84.2132V67.041C79.1816 67.041 77.6187 64.6127 77.6187 59.4061L77.6153 59.4096ZM69.8045 56.6452C68.4149 63.1508 64.3363 66.6219 59.9978 66.6219C52.2737 66.6219 48.1084 59.7698 48.195 45.7159C48.1084 31.0558 53.2266 24.1137 60.0844 24.1137C64.5962 24.1137 68.155 26.109 69.8045 30.7925V56.6417V56.6452Z" fill="white"/>
<path d="M124.314 59.4962V22.3816H109.908V24.3042C114.94 24.3042 116.503 26.7326 116.503 31.9391V50.7493C116.503 59.5966 111.558 66.4521 104.787 66.4521C98.5388 66.4521 98.1923 61.8552 98.1923 56.4755V22.3816H83.7871V24.3042C88.8187 24.3042 90.3815 26.7326 90.3815 31.9391V54.5667C90.3815 60.0331 91.0746 63.5873 93.2439 65.9325C95.2399 68.0144 98.1888 69.2303 102.271 69.2303C107.826 69.2303 113.55 66.3655 116.503 58.8207V69.0571H130.381V67.1172C125.772 66.9475 124.314 64.5157 124.314 59.4996V59.4962Z" fill="white"/>
<path d="M172.727 60.7952V36.7785C172.727 30.8791 171.861 27.758 169.688 25.4162C167.692 23.3343 164.916 22.1184 160.488 22.1184C154.586 22.1184 148.772 24.8065 145.736 32.6146V22.3782H131.331V24.3008C136.362 24.3008 137.925 26.7291 137.925 31.9357V60.7952C137.925 65.4441 136.248 66.9717 131.92 67.0964V69.0502H151.464V67.041C147.299 67.041 145.736 65.6519 145.736 60.7952V40.6826C145.736 31.8352 150.594 24.8931 157.885 24.8931C164.133 24.8931 164.913 29.49 164.913 34.8698V60.7952C164.913 65.6519 163.35 67.041 159.185 67.041V69.0502H179.318V67.041C174.546 67.041 172.724 65.6519 172.724 60.7952H172.727Z" fill="white"/>
<path d="M199.022 22.1218C188.002 22.1218 179.325 29.0605 179.325 45.7159C179.325 62.3714 188.002 69.2234 199.022 69.2234C210.041 69.2234 218.722 62.3714 218.722 45.7159C218.722 29.0605 210.045 22.1218 199.022 22.1218ZM199.022 67.4913C192.427 67.4913 187.742 61.2455 187.742 45.7159C187.742 30.1863 192.427 23.8539 199.022 23.8539C205.616 23.8539 210.305 30.1863 210.305 45.7159C210.305 61.2455 205.62 67.4913 199.022 67.4913Z" fill="white"/>
<path d="M233.127 60.8853V22.4682H218.722V24.3908C223.753 24.3908 225.316 26.8192 225.316 32.0257V60.8853C225.316 65.742 223.493 67.1311 218.722 67.1311V69.1403H239.721V67.1311C234.95 67.1311 233.127 65.742 233.127 60.8853Z" fill="white"/>
<path d="M228.393 15.6024C230.957 15.6024 233.085 13.4754 233.085 10.912C233.085 8.34852 230.957 6.22155 228.393 6.22155C225.829 6.22155 223.701 8.34852 223.701 10.912C223.701 13.4754 225.829 15.6024 228.393 15.6024Z" fill="white"/>
<path d="M281.558 63.9337C280.345 64.9729 279.215 65.7558 277.652 65.7558C275.656 65.7558 274.963 64.4533 274.963 61.6786V37.5614C274.963 31.4022 274.27 28.1944 271.491 25.4162C269.495 23.4209 265.849 22.1184 260.991 22.1184C255.436 22.1184 251.271 23.7673 248.842 25.4162C246.413 27.0651 244.763 29.0605 244.763 31.5754C244.763 34.7 246.499 36.9552 249.448 36.9552C252.574 36.9552 254.566 35.2197 254.566 32.2717C254.566 29.3237 252.657 27.5016 250.488 26.9785C252.484 24.4636 256.129 23.8574 259.078 23.8574C263.59 23.8574 267.149 25.3331 267.149 32.6181V37.9944C267.149 41.4655 262.55 42.9377 256.736 45.3695C248.059 49.0138 242.764 52.0483 242.764 58.9038C242.764 65.7593 247.972 68.6206 253.783 68.6206C257.949 68.6206 263.417 67.0583 267.149 60.8991C267.149 64.9764 268.538 68.6206 274.613 68.6206C278.259 68.6206 280.081 67.2315 282.51 65.4094L281.558 63.9337ZM267.152 58.5574C264.203 63.3275 260.818 65.1496 257.346 65.1496C253.354 65.1496 250.405 62.7213 250.405 57.5147C250.405 50.8359 255.003 48.3175 258.822 46.4988C264.29 43.8107 266.199 42.9412 267.152 41.5555V58.5574Z" fill="white"/>
</svg>
